<mxfile host="app.diagrams.net" agent="Mozilla/5.0 (Windows NT 10.0; Win64; x64) AppleWebKit/537.36 (KHTML, like Gecko) Chrome/138.0.0.0 Safari/537.36" version="28.0.7">
  <diagram name="Сторінка-1" id="bitMsUzE2f-vuUdNJgTZ">
    <mxGraphModel dx="1366" dy="711" grid="1" gridSize="10" guides="1" tooltips="1" connect="1" arrows="1" fold="1" page="1" pageScale="1" pageWidth="1169" pageHeight="827" math="0" shadow="0">
      <root>
        <mxCell id="0" />
        <mxCell id="1" parent="0" />
        <mxCell id="uBjLkE2Hoa3UZVWR7nmY-1" value="" style="verticalLabelPosition=bottom;verticalAlign=top;html=1;shape=mxgraph.basic.rect;fillColor2=none;strokeWidth=2;size=20;indent=5;fillColor=#fff2cc;strokeColor=default;perimeterSpacing=1;" parent="1" vertex="1">
          <mxGeometry x="320" y="162" width="680" height="530" as="geometry" />
        </mxCell>
        <mxCell id="uBjLkE2Hoa3UZVWR7nmY-2" value="&lt;font style=&quot;color: rgb(0, 0, 0); font-size: 20px;&quot;&gt;&lt;b style=&quot;&quot;&gt;STM32G431CBUx&lt;/b&gt;&lt;/font&gt;" style="text;html=1;align=center;verticalAlign=middle;whiteSpace=wrap;rounded=0;" parent="1" vertex="1">
          <mxGeometry x="640" y="132" width="60" height="30" as="geometry" />
        </mxCell>
        <mxCell id="uBjLkE2Hoa3UZVWR7nmY-3" value="" style="triangle;whiteSpace=wrap;html=1;fillColor=#f5f5f5;fontColor=#333333;strokeColor=#666666;" parent="1" vertex="1">
          <mxGeometry x="900" y="202" width="60" height="80" as="geometry" />
        </mxCell>
        <mxCell id="uBjLkE2Hoa3UZVWR7nmY-4" value="" style="triangle;whiteSpace=wrap;html=1;fillColor=#f5f5f5;fontColor=#333333;strokeColor=#666666;" parent="1" vertex="1">
          <mxGeometry x="427" y="280" width="60" height="80" as="geometry" />
        </mxCell>
        <mxCell id="uBjLkE2Hoa3UZVWR7nmY-5" value="" style="triangle;whiteSpace=wrap;html=1;fillColor=#f5f5f5;fontColor=#333333;strokeColor=#666666;" parent="1" vertex="1">
          <mxGeometry x="428" y="440" width="60" height="80" as="geometry" />
        </mxCell>
        <mxCell id="uBjLkE2Hoa3UZVWR7nmY-6" value="DAC1&lt;br&gt;CH 1" style="rounded=0;whiteSpace=wrap;html=1;fillColor=#f5f5f5;fontColor=#333333;strokeColor=#666666;" parent="1" vertex="1">
          <mxGeometry x="346" y="384" width="51" height="41" as="geometry" />
        </mxCell>
        <mxCell id="uBjLkE2Hoa3UZVWR7nmY-7" value="" style="rounded=0;whiteSpace=wrap;html=1;fillColor=#f5f5f5;fontColor=#333333;strokeColor=#666666;" parent="1" vertex="1">
          <mxGeometry x="796.5" y="190" width="60" height="110" as="geometry" />
        </mxCell>
        <mxCell id="uBjLkE2Hoa3UZVWR7nmY-8" value="TIM1" style="rounded=0;whiteSpace=wrap;html=1;fillColor=#f5f5f5;fontColor=#333333;strokeColor=#666666;" parent="1" vertex="1">
          <mxGeometry x="517" y="370" width="80" height="60" as="geometry" />
        </mxCell>
        <mxCell id="uBjLkE2Hoa3UZVWR7nmY-9" value="TIM2" style="rounded=0;whiteSpace=wrap;html=1;fillColor=#f5f5f5;fontColor=#333333;strokeColor=#666666;" parent="1" vertex="1">
          <mxGeometry x="517" y="455" width="80" height="50" as="geometry" />
        </mxCell>
        <mxCell id="uBjLkE2Hoa3UZVWR7nmY-10" value="TIM3" style="rounded=0;whiteSpace=wrap;html=1;fillColor=#f5f5f5;fontColor=#333333;strokeColor=#666666;" parent="1" vertex="1">
          <mxGeometry x="517" y="295" width="80" height="50" as="geometry" />
        </mxCell>
        <mxCell id="uBjLkE2Hoa3UZVWR7nmY-11" value="&lt;font style=&quot;color: rgb(0, 0, 0);&quot;&gt;OPAMP 1 MULTIPLEXER&lt;/font&gt;" style="text;html=1;align=center;verticalAlign=middle;whiteSpace=wrap;rounded=0;rotation=-90;" parent="1" vertex="1">
          <mxGeometry x="784" y="230" width="83" height="30" as="geometry" />
        </mxCell>
        <mxCell id="uBjLkE2Hoa3UZVWR7nmY-12" value="DMA 1&lt;br&gt;CH 1" style="rounded=0;whiteSpace=wrap;html=1;fillColor=#f5f5f5;fontColor=#333333;strokeColor=#666666;" parent="1" vertex="1">
          <mxGeometry x="626" y="405" width="60" height="30" as="geometry" />
        </mxCell>
        <mxCell id="uBjLkE2Hoa3UZVWR7nmY-13" value="DMA 1&lt;br&gt;CH 2" style="rounded=0;whiteSpace=wrap;html=1;fillColor=#f5f5f5;fontColor=#333333;strokeColor=#666666;" parent="1" vertex="1">
          <mxGeometry x="626" y="365" width="60" height="30" as="geometry" />
        </mxCell>
        <mxCell id="uBjLkE2Hoa3UZVWR7nmY-14" value="&lt;span style=&quot;color: rgb(51, 51, 51); font-family: Helvetica; font-size: 12px; font-style: normal; font-variant-ligatures: normal; font-variant-caps: normal; font-weight: 400; letter-spacing: normal; orphans: 2; text-align: center; text-indent: 0px; text-transform: none; widows: 2; word-spacing: 0px; -webkit-text-stroke-width: 0px; white-space: normal; background-color: rgb(236, 236, 236); text-decoration-thickness: initial; text-decoration-style: initial; text-decoration-color: initial; display: inline !important; float: none;&quot;&gt;COMP3&lt;/span&gt;" style="text;whiteSpace=wrap;html=1;" parent="1" vertex="1">
          <mxGeometry x="429" y="466" width="50" height="30" as="geometry" />
        </mxCell>
        <mxCell id="uBjLkE2Hoa3UZVWR7nmY-15" value="&lt;span style=&quot;color: rgb(51, 51, 51); font-family: Helvetica; font-size: 12px; font-style: normal; font-variant-ligatures: normal; font-variant-caps: normal; font-weight: 400; letter-spacing: normal; orphans: 2; text-align: center; text-indent: 0px; text-transform: none; widows: 2; word-spacing: 0px; -webkit-text-stroke-width: 0px; white-space: normal; background-color: rgb(236, 236, 236); text-decoration-thickness: initial; text-decoration-style: initial; text-decoration-color: initial; float: none; display: inline !important;&quot;&gt;COMP4&lt;/span&gt;" style="text;whiteSpace=wrap;html=1;" parent="1" vertex="1">
          <mxGeometry x="428" y="307" width="50" height="30" as="geometry" />
        </mxCell>
        <mxCell id="uBjLkE2Hoa3UZVWR7nmY-16" value="&lt;font style=&quot;color: rgb(0, 0, 0); font-weight: normal; font-size: 12px;&quot;&gt;OPAMP1&lt;/font&gt;" style="text;strokeColor=none;fillColor=none;html=1;fontSize=24;fontStyle=1;verticalAlign=middle;align=center;" parent="1" vertex="1">
          <mxGeometry x="906" y="228" width="40" height="20" as="geometry" />
        </mxCell>
        <mxCell id="uBjLkE2Hoa3UZVWR7nmY-17" value="" style="endArrow=classic;html=1;rounded=0;exitX=1;exitY=0.5;exitDx=0;exitDy=0;entryX=0;entryY=0.5;entryDx=0;entryDy=0;" parent="1" source="uBjLkE2Hoa3UZVWR7nmY-4" target="uBjLkE2Hoa3UZVWR7nmY-10" edge="1">
          <mxGeometry width="50" height="50" relative="1" as="geometry">
            <mxPoint x="548" y="420" as="sourcePoint" />
            <mxPoint x="568" y="350" as="targetPoint" />
          </mxGeometry>
        </mxCell>
        <mxCell id="uBjLkE2Hoa3UZVWR7nmY-18" value="" style="endArrow=classic;html=1;rounded=0;exitX=1;exitY=0.5;exitDx=0;exitDy=0;entryX=0;entryY=0.5;entryDx=0;entryDy=0;" parent="1" edge="1">
          <mxGeometry width="50" height="50" relative="1" as="geometry">
            <mxPoint x="488" y="479.86" as="sourcePoint" />
            <mxPoint x="517" y="479.86" as="targetPoint" />
          </mxGeometry>
        </mxCell>
        <mxCell id="uBjLkE2Hoa3UZVWR7nmY-19" value="" style="endArrow=classic;html=1;rounded=0;exitX=1;exitY=0.5;exitDx=0;exitDy=0;entryX=0;entryY=0.5;entryDx=0;entryDy=0;" parent="1" edge="1">
          <mxGeometry width="50" height="50" relative="1" as="geometry">
            <mxPoint x="597" y="380" as="sourcePoint" />
            <mxPoint x="626" y="380" as="targetPoint" />
            <Array as="points">
              <mxPoint x="617" y="380" />
            </Array>
          </mxGeometry>
        </mxCell>
        <mxCell id="uBjLkE2Hoa3UZVWR7nmY-20" value="" style="endArrow=classic;html=1;rounded=0;exitX=1;exitY=0.5;exitDx=0;exitDy=0;entryX=0;entryY=0.5;entryDx=0;entryDy=0;" parent="1" edge="1">
          <mxGeometry width="50" height="50" relative="1" as="geometry">
            <mxPoint x="597" y="420" as="sourcePoint" />
            <mxPoint x="626" y="420" as="targetPoint" />
          </mxGeometry>
        </mxCell>
        <mxCell id="uBjLkE2Hoa3UZVWR7nmY-21" value="DAC3" style="rounded=0;whiteSpace=wrap;html=1;fillColor=#f5f5f5;fontColor=#333333;strokeColor=#666666;" parent="1" vertex="1">
          <mxGeometry x="707" y="367" width="50" height="26" as="geometry" />
        </mxCell>
        <mxCell id="uBjLkE2Hoa3UZVWR7nmY-22" style="edgeStyle=orthogonalEdgeStyle;rounded=0;orthogonalLoop=1;jettySize=auto;html=1;entryX=0;entryY=0.5;entryDx=0;entryDy=0;endArrow=none;startFill=1;startArrow=classic;strokeColor=#000000;" parent="1" source="uBjLkE2Hoa3UZVWR7nmY-24" target="uBjLkE2Hoa3UZVWR7nmY-26" edge="1">
          <mxGeometry relative="1" as="geometry" />
        </mxCell>
        <mxCell id="uBjLkE2Hoa3UZVWR7nmY-23" value="" style="rounded=0;whiteSpace=wrap;html=1;fillColor=none;strokeColor=#999999;dashed=1;" parent="1" vertex="1">
          <mxGeometry x="342" y="540" width="240" height="140" as="geometry" />
        </mxCell>
        <mxCell id="uBjLkE2Hoa3UZVWR7nmY-24" value="TIM17" style="rounded=0;whiteSpace=wrap;html=1;fillColor=#f5f5f5;fontColor=#333333;strokeColor=#666666;" parent="1" vertex="1">
          <mxGeometry x="367" y="567" width="80" height="45" as="geometry" />
        </mxCell>
        <mxCell id="uBjLkE2Hoa3UZVWR7nmY-25" value="&lt;font style=&quot;color: rgb(0, 0, 0); font-weight: normal; font-size: 12px;&quot;&gt;Internal Video Generator&lt;/font&gt;" style="text;strokeColor=none;fillColor=none;html=1;fontSize=24;fontStyle=1;verticalAlign=middle;align=center;" parent="1" vertex="1">
          <mxGeometry x="443" y="539" width="40" height="20" as="geometry" />
        </mxCell>
        <mxCell id="uBjLkE2Hoa3UZVWR7nmY-26" value="TIM4" style="rounded=0;whiteSpace=wrap;html=1;fillColor=#f5f5f5;fontColor=#333333;strokeColor=#666666;" parent="1" vertex="1">
          <mxGeometry x="483" y="567" width="80" height="45" as="geometry" />
        </mxCell>
        <mxCell id="uBjLkE2Hoa3UZVWR7nmY-27" value="&lt;div&gt;&lt;font style=&quot;font-size: 9px;&quot; color=&quot;#000000&quot;&gt;&lt;span style=&quot;font-weight: 400;&quot;&gt;reset cnt - TIM2&lt;/span&gt;&lt;/font&gt;&lt;/div&gt;" style="text;strokeColor=none;fillColor=none;html=1;fontSize=24;fontStyle=1;verticalAlign=middle;align=center;rotation=0;" parent="1" vertex="1">
          <mxGeometry x="467" y="604" width="110" height="18" as="geometry" />
        </mxCell>
        <mxCell id="uBjLkE2Hoa3UZVWR7nmY-28" style="edgeStyle=orthogonalEdgeStyle;rounded=0;orthogonalLoop=1;jettySize=auto;html=1;exitX=0.5;exitY=0;exitDx=0;exitDy=0;entryX=0.5;entryY=1;entryDx=0;entryDy=0;strokeColor=#000000;" parent="1" source="uBjLkE2Hoa3UZVWR7nmY-29" target="uBjLkE2Hoa3UZVWR7nmY-24" edge="1">
          <mxGeometry relative="1" as="geometry" />
        </mxCell>
        <mxCell id="uBjLkE2Hoa3UZVWR7nmY-29" value="DMA1&lt;br&gt;CH 6" style="rounded=0;whiteSpace=wrap;html=1;fillColor=#f5f5f5;fontColor=#333333;strokeColor=#666666;" parent="1" vertex="1">
          <mxGeometry x="367" y="625" width="80" height="38" as="geometry" />
        </mxCell>
        <mxCell id="uBjLkE2Hoa3UZVWR7nmY-30" style="edgeStyle=orthogonalEdgeStyle;rounded=0;orthogonalLoop=1;jettySize=auto;html=1;exitX=0.5;exitY=0;exitDx=0;exitDy=0;strokeColor=#000000;endArrow=none;startFill=0;" parent="1" source="uBjLkE2Hoa3UZVWR7nmY-32" edge="1">
          <mxGeometry relative="1" as="geometry">
            <mxPoint x="249" y="590.1428571428571" as="targetPoint" />
          </mxGeometry>
        </mxCell>
        <mxCell id="uBjLkE2Hoa3UZVWR7nmY-31" style="edgeStyle=orthogonalEdgeStyle;rounded=0;orthogonalLoop=1;jettySize=auto;html=1;exitX=0.5;exitY=1;exitDx=0;exitDy=0;strokeColor=#000000;endArrow=none;startFill=0;entryX=0.498;entryY=0.429;entryDx=0;entryDy=0;entryPerimeter=0;" parent="1" source="uBjLkE2Hoa3UZVWR7nmY-32" target="uBjLkE2Hoa3UZVWR7nmY-36" edge="1">
          <mxGeometry relative="1" as="geometry">
            <mxPoint x="149" y="609" as="targetPoint" />
            <Array as="points">
              <mxPoint x="149" y="590" />
              <mxPoint x="149" y="610" />
              <mxPoint x="149" y="610" />
            </Array>
          </mxGeometry>
        </mxCell>
        <mxCell id="uBjLkE2Hoa3UZVWR7nmY-32" value="" style="rounded=0;whiteSpace=wrap;html=1;fillColor=#4D4D4D;direction=south;strokeColor=#000000;" parent="1" vertex="1">
          <mxGeometry x="169" y="580" width="40" height="20" as="geometry" />
        </mxCell>
        <mxCell id="uBjLkE2Hoa3UZVWR7nmY-33" value="&lt;font style=&quot;color: rgb(0, 0, 0); font-weight: normal; font-size: 12px;&quot;&gt;1K&lt;/font&gt;" style="text;strokeColor=none;fillColor=none;html=1;fontSize=24;fontStyle=1;verticalAlign=middle;align=center;rotation=0;" parent="1" vertex="1">
          <mxGeometry x="169" y="560" width="40" height="20" as="geometry" />
        </mxCell>
        <mxCell id="uBjLkE2Hoa3UZVWR7nmY-34" value="" style="rounded=0;whiteSpace=wrap;html=1;fillColor=#4D4D4D;direction=south;strokeColor=#000000;" parent="1" vertex="1">
          <mxGeometry x="249" y="580" width="40" height="20" as="geometry" />
        </mxCell>
        <mxCell id="uBjLkE2Hoa3UZVWR7nmY-35" value="&lt;font style=&quot;color: rgb(0, 0, 0); font-weight: normal; font-size: 12px;&quot;&gt;10K&lt;/font&gt;" style="text;strokeColor=none;fillColor=none;html=1;fontSize=24;fontStyle=1;verticalAlign=middle;align=center;rotation=0;" parent="1" vertex="1">
          <mxGeometry x="249" y="560" width="40" height="20" as="geometry" />
        </mxCell>
        <mxCell id="uBjLkE2Hoa3UZVWR7nmY-36" value="" style="line;strokeWidth=1;html=1;fillColor=#000000;strokeColor=#000000;" parent="1" vertex="1">
          <mxGeometry x="129" y="609" width="40" height="2" as="geometry" />
        </mxCell>
        <mxCell id="uBjLkE2Hoa3UZVWR7nmY-37" value="" style="line;strokeWidth=1;html=1;fillColor=#000000;strokeColor=#000000;" parent="1" vertex="1">
          <mxGeometry x="134" y="619" width="30" height="2" as="geometry" />
        </mxCell>
        <mxCell id="uBjLkE2Hoa3UZVWR7nmY-38" value="" style="line;strokeWidth=1;html=1;fillColor=#000000;strokeColor=#000000;" parent="1" vertex="1">
          <mxGeometry x="141.5" y="629" width="15" height="2" as="geometry" />
        </mxCell>
        <mxCell id="uBjLkE2Hoa3UZVWR7nmY-39" value="" style="shape=waypoint;sketch=0;size=6;pointerEvents=1;points=[];fillColor=none;resizable=0;rotatable=0;perimeter=centerPerimeter;snapToPoint=1;fontColor=#000000;strokeColor=#000000;" parent="1" vertex="1">
          <mxGeometry x="220" y="580" width="20" height="20" as="geometry" />
        </mxCell>
        <mxCell id="uBjLkE2Hoa3UZVWR7nmY-40" value="" style="endArrow=classic;html=1;rounded=0;entryX=0.008;entryY=0.22;entryDx=0;entryDy=0;entryPerimeter=0;" parent="1" edge="1">
          <mxGeometry width="50" height="50" relative="1" as="geometry">
            <mxPoint x="230" y="200" as="sourcePoint" />
            <mxPoint x="796.98" y="199.20000000000005" as="targetPoint" />
          </mxGeometry>
        </mxCell>
        <mxCell id="uBjLkE2Hoa3UZVWR7nmY-41" value="" style="endArrow=none;html=1;rounded=0;exitDx=0;exitDy=0;exitPerimeter=0;endFill=0;" parent="1" edge="1">
          <mxGeometry width="50" height="50" relative="1" as="geometry">
            <mxPoint x="220" y="200" as="sourcePoint" />
            <mxPoint x="220" y="200" as="targetPoint" />
            <Array as="points" />
          </mxGeometry>
        </mxCell>
        <mxCell id="uBjLkE2Hoa3UZVWR7nmY-42" value="" style="endArrow=classic;html=1;rounded=0;entryX=0.008;entryY=0.22;entryDx=0;entryDy=0;entryPerimeter=0;" parent="1" edge="1">
          <mxGeometry width="50" height="50" relative="1" as="geometry">
            <mxPoint x="100" y="260" as="sourcePoint" />
            <mxPoint x="796.5" y="261" as="targetPoint" />
          </mxGeometry>
        </mxCell>
        <mxCell id="uBjLkE2Hoa3UZVWR7nmY-44" value="" style="endArrow=classic;html=1;rounded=0;entryX=0.008;entryY=0.22;entryDx=0;entryDy=0;entryPerimeter=0;" parent="1" edge="1">
          <mxGeometry width="50" height="50" relative="1" as="geometry">
            <mxPoint x="100" y="230" as="sourcePoint" />
            <mxPoint x="796.5" y="230" as="targetPoint" />
          </mxGeometry>
        </mxCell>
        <mxCell id="uBjLkE2Hoa3UZVWR7nmY-45" value="&lt;font style=&quot;color: rgb(0, 0, 0); font-weight: normal; font-size: 12px;&quot;&gt;VIDEO IN&lt;/font&gt;" style="text;strokeColor=none;fillColor=none;html=1;fontSize=24;fontStyle=1;verticalAlign=middle;align=center;" parent="1" vertex="1">
          <mxGeometry x="54" y="240" width="40" height="20" as="geometry" />
        </mxCell>
        <mxCell id="uBjLkE2Hoa3UZVWR7nmY-46" value="" style="endArrow=classic;html=1;rounded=0;exitX=1;exitY=0.5;exitDx=0;exitDy=0;" parent="1" source="uBjLkE2Hoa3UZVWR7nmY-21" edge="1">
          <mxGeometry width="50" height="50" relative="1" as="geometry">
            <mxPoint x="557" y="320" as="sourcePoint" />
            <mxPoint x="796" y="290" as="targetPoint" />
            <Array as="points">
              <mxPoint x="777" y="380" />
              <mxPoint x="777" y="290" />
            </Array>
          </mxGeometry>
        </mxCell>
        <mxCell id="uBjLkE2Hoa3UZVWR7nmY-48" value="&lt;font style=&quot;color: rgb(0, 0, 0); font-weight: normal; font-size: 12px;&quot;&gt;AUX VIDEO IN&lt;/font&gt;" style="text;strokeColor=none;fillColor=none;html=1;fontSize=24;fontStyle=1;verticalAlign=middle;align=center;" parent="1" vertex="1">
          <mxGeometry x="40" y="210" width="40" height="20" as="geometry" />
        </mxCell>
        <mxCell id="uBjLkE2Hoa3UZVWR7nmY-49" value="" style="endArrow=none;html=1;rounded=0;entryX=0;entryY=0.5;entryDx=0;entryDy=0;exitX=0.5;exitY=0;exitDx=0;exitDy=0;" parent="1" source="uBjLkE2Hoa3UZVWR7nmY-34" target="uBjLkE2Hoa3UZVWR7nmY-24" edge="1">
          <mxGeometry width="50" height="50" relative="1" as="geometry">
            <mxPoint x="468" y="660" as="sourcePoint" />
            <mxPoint x="518" y="610" as="targetPoint" />
          </mxGeometry>
        </mxCell>
        <mxCell id="uBjLkE2Hoa3UZVWR7nmY-50" value="" style="endArrow=classic;html=1;rounded=0;exitX=0.5;exitY=1;exitDx=0;exitDy=0;entryX=0.5;entryY=0;entryDx=0;entryDy=0;" parent="1" source="uBjLkE2Hoa3UZVWR7nmY-10" target="uBjLkE2Hoa3UZVWR7nmY-8" edge="1">
          <mxGeometry width="50" height="50" relative="1" as="geometry">
            <mxPoint x="517" y="410" as="sourcePoint" />
            <mxPoint x="567" y="360" as="targetPoint" />
          </mxGeometry>
        </mxCell>
        <mxCell id="uBjLkE2Hoa3UZVWR7nmY-51" value="" style="endArrow=classic;html=1;rounded=0;entryX=0.5;entryY=1;entryDx=0;entryDy=0;exitX=0.5;exitY=0;exitDx=0;exitDy=0;" parent="1" source="uBjLkE2Hoa3UZVWR7nmY-9" target="uBjLkE2Hoa3UZVWR7nmY-8" edge="1">
          <mxGeometry width="50" height="50" relative="1" as="geometry">
            <mxPoint x="557" y="450" as="sourcePoint" />
            <mxPoint x="567" y="415" as="targetPoint" />
          </mxGeometry>
        </mxCell>
        <mxCell id="uBjLkE2Hoa3UZVWR7nmY-52" value="" style="endArrow=classic;html=1;rounded=0;entryX=-0.005;entryY=0.332;entryDx=0;entryDy=0;entryPerimeter=0;" parent="1" target="uBjLkE2Hoa3UZVWR7nmY-8" edge="1">
          <mxGeometry width="50" height="50" relative="1" as="geometry">
            <mxPoint x="497" y="320" as="sourcePoint" />
            <mxPoint x="497" y="380" as="targetPoint" />
            <Array as="points">
              <mxPoint x="497" y="390" />
            </Array>
          </mxGeometry>
        </mxCell>
        <mxCell id="uBjLkE2Hoa3UZVWR7nmY-53" value="" style="shape=waypoint;sketch=0;size=6;pointerEvents=1;points=[];fillColor=none;resizable=0;rotatable=0;perimeter=centerPerimeter;snapToPoint=1;fontColor=#000000;strokeColor=#000000;" parent="1" vertex="1">
          <mxGeometry x="487" y="310" width="20" height="20" as="geometry" />
        </mxCell>
        <mxCell id="uBjLkE2Hoa3UZVWR7nmY-54" value="" style="endArrow=classic;html=1;rounded=0;entryX=-0.005;entryY=0.667;entryDx=0;entryDy=0;entryPerimeter=0;" parent="1" target="uBjLkE2Hoa3UZVWR7nmY-8" edge="1">
          <mxGeometry width="50" height="50" relative="1" as="geometry">
            <mxPoint x="497" y="480" as="sourcePoint" />
            <mxPoint x="517" y="450" as="targetPoint" />
            <Array as="points">
              <mxPoint x="497" y="410" />
            </Array>
          </mxGeometry>
        </mxCell>
        <mxCell id="uBjLkE2Hoa3UZVWR7nmY-55" value="" style="shape=waypoint;sketch=0;size=6;pointerEvents=1;points=[];fillColor=none;resizable=0;rotatable=0;perimeter=centerPerimeter;snapToPoint=1;fontColor=#000000;strokeColor=#000000;" parent="1" vertex="1">
          <mxGeometry x="487" y="470" width="20" height="20" as="geometry" />
        </mxCell>
        <mxCell id="uBjLkE2Hoa3UZVWR7nmY-56" value="" style="endArrow=classic;html=1;rounded=0;entryX=0;entryY=0.5;entryDx=0;entryDy=0;exitX=1;exitY=0.5;exitDx=0;exitDy=0;" parent="1" source="uBjLkE2Hoa3UZVWR7nmY-13" target="uBjLkE2Hoa3UZVWR7nmY-21" edge="1">
          <mxGeometry width="50" height="50" relative="1" as="geometry">
            <mxPoint x="647" y="410" as="sourcePoint" />
            <mxPoint x="697" y="360" as="targetPoint" />
          </mxGeometry>
        </mxCell>
        <mxCell id="uBjLkE2Hoa3UZVWR7nmY-57" value="" style="endArrow=classic;html=1;rounded=0;exitX=0.997;exitY=0.391;exitDx=0;exitDy=0;exitPerimeter=0;" parent="1" source="uBjLkE2Hoa3UZVWR7nmY-6" edge="1">
          <mxGeometry width="50" height="50" relative="1" as="geometry">
            <mxPoint x="397" y="390" as="sourcePoint" />
            <mxPoint x="427" y="340" as="targetPoint" />
            <Array as="points">
              <mxPoint x="407" y="400" />
              <mxPoint x="407" y="340" />
            </Array>
          </mxGeometry>
        </mxCell>
        <mxCell id="uBjLkE2Hoa3UZVWR7nmY-58" value="" style="endArrow=classic;html=1;rounded=0;exitX=1.001;exitY=0.634;exitDx=0;exitDy=0;entryX=0;entryY=0.25;entryDx=0;entryDy=0;exitPerimeter=0;" parent="1" source="uBjLkE2Hoa3UZVWR7nmY-6" target="uBjLkE2Hoa3UZVWR7nmY-5" edge="1">
          <mxGeometry width="50" height="50" relative="1" as="geometry">
            <mxPoint x="417" y="460" as="sourcePoint" />
            <mxPoint x="427" y="460" as="targetPoint" />
            <Array as="points">
              <mxPoint x="407" y="410" />
              <mxPoint x="407" y="460" />
            </Array>
          </mxGeometry>
        </mxCell>
        <mxCell id="uBjLkE2Hoa3UZVWR7nmY-59" value="" style="rounded=0;whiteSpace=wrap;html=1;fillColor=none;strokeColor=#999999;dashed=1;" parent="1" vertex="1">
          <mxGeometry x="849.5" y="390" width="130" height="290" as="geometry" />
        </mxCell>
        <mxCell id="uBjLkE2Hoa3UZVWR7nmY-60" value="UART1" style="rounded=0;whiteSpace=wrap;html=1;fillColor=#f5f5f5;fontColor=#333333;strokeColor=#666666;" parent="1" vertex="1">
          <mxGeometry x="879.5" y="569" width="80" height="60" as="geometry" />
        </mxCell>
        <mxCell id="uBjLkE2Hoa3UZVWR7nmY-61" value="TX - DMA 2&lt;br&gt;CH 2" style="rounded=0;whiteSpace=wrap;html=1;fillColor=#f5f5f5;fontColor=#333333;strokeColor=#666666;" parent="1" vertex="1">
          <mxGeometry x="875" y="524" width="86.5" height="30" as="geometry" />
        </mxCell>
        <mxCell id="uBjLkE2Hoa3UZVWR7nmY-62" value="RX - DMA 2&lt;br&gt;CH 1" style="rounded=0;whiteSpace=wrap;html=1;fillColor=#f5f5f5;fontColor=#333333;strokeColor=#666666;" parent="1" vertex="1">
          <mxGeometry x="879.5" y="645" width="82" height="30" as="geometry" />
        </mxCell>
        <mxCell id="uBjLkE2Hoa3UZVWR7nmY-63" value="" style="line;strokeWidth=1;html=1;fillColor=#000000;strokeColor=#000000;" parent="1" vertex="1">
          <mxGeometry x="960" y="583" width="99" height="2" as="geometry" />
        </mxCell>
        <mxCell id="uBjLkE2Hoa3UZVWR7nmY-64" value="" style="line;strokeWidth=1;html=1;fillColor=#000000;strokeColor=#000000;" parent="1" vertex="1">
          <mxGeometry x="960" y="614" width="99" height="2" as="geometry" />
        </mxCell>
        <mxCell id="uBjLkE2Hoa3UZVWR7nmY-65" value="&lt;font style=&quot;color: rgb(0, 0, 0); font-weight: normal; font-size: 12px;&quot;&gt;UART1 RX&lt;/font&gt;" style="text;strokeColor=none;fillColor=none;html=1;fontSize=24;fontStyle=1;verticalAlign=middle;align=center;" parent="1" vertex="1">
          <mxGeometry x="1068.5" y="565" width="40" height="20" as="geometry" />
        </mxCell>
        <mxCell id="uBjLkE2Hoa3UZVWR7nmY-66" value="&lt;font style=&quot;color: rgb(0, 0, 0); font-weight: normal; font-size: 12px;&quot;&gt;UART1 TX&lt;/font&gt;" style="text;strokeColor=none;fillColor=none;html=1;fontSize=24;fontStyle=1;verticalAlign=middle;align=center;" parent="1" vertex="1">
          <mxGeometry x="1067.5" y="595" width="40" height="20" as="geometry" />
        </mxCell>
        <mxCell id="uBjLkE2Hoa3UZVWR7nmY-67" value="&lt;font style=&quot;font-size: 8px;&quot; color=&quot;#000000&quot;&gt;&lt;span style=&quot;font-weight: 400;&quot;&gt;MSP DisplayPort&lt;/span&gt;&lt;/font&gt;" style="text;strokeColor=none;fillColor=none;html=1;fontSize=24;fontStyle=1;verticalAlign=middle;align=center;rotation=0;" parent="1" vertex="1">
          <mxGeometry x="888.5" y="489" width="66" height="28" as="geometry" />
        </mxCell>
        <mxCell id="uBjLkE2Hoa3UZVWR7nmY-68" value="USB" style="rounded=0;whiteSpace=wrap;html=1;fillColor=#f5f5f5;fontColor=#333333;strokeColor=#666666;" parent="1" vertex="1">
          <mxGeometry x="882.5" y="399" width="77.5" height="61" as="geometry" />
        </mxCell>
        <mxCell id="uBjLkE2Hoa3UZVWR7nmY-69" value="" style="line;strokeWidth=1;html=1;fillColor=#000000;strokeColor=#000000;" parent="1" vertex="1">
          <mxGeometry x="960" y="413" width="99" height="2" as="geometry" />
        </mxCell>
        <mxCell id="uBjLkE2Hoa3UZVWR7nmY-70" value="" style="line;strokeWidth=1;html=1;fillColor=#000000;strokeColor=#000000;" parent="1" vertex="1">
          <mxGeometry x="960" y="444" width="99" height="2" as="geometry" />
        </mxCell>
        <mxCell id="uBjLkE2Hoa3UZVWR7nmY-71" style="edgeStyle=orthogonalEdgeStyle;rounded=0;orthogonalLoop=1;jettySize=auto;html=1;exitX=0;exitY=0.5;exitDx=0;exitDy=0;entryX=0;entryY=0.5;entryDx=0;entryDy=0;strokeColor=#000000;startArrow=block;startFill=1;dashed=1;" parent="1" edge="1">
          <mxGeometry relative="1" as="geometry">
            <Array as="points">
              <mxPoint x="866" y="482.25" />
              <mxPoint x="866" y="425.25" />
            </Array>
            <mxPoint x="882.5" y="481.25" as="sourcePoint" />
            <mxPoint x="882.5" y="425.74999999999994" as="targetPoint" />
          </mxGeometry>
        </mxCell>
        <mxCell id="uBjLkE2Hoa3UZVWR7nmY-72" value="TIM7" style="rounded=0;whiteSpace=wrap;html=1;fillColor=#f5f5f5;fontColor=#333333;strokeColor=#666666;" parent="1" vertex="1">
          <mxGeometry x="882.5" y="470" width="77.5" height="30" as="geometry" />
        </mxCell>
        <mxCell id="uBjLkE2Hoa3UZVWR7nmY-73" value="&lt;font style=&quot;color: rgb(0, 0, 0); font-weight: normal; font-size: 12px;&quot;&gt;USB_P&lt;/font&gt;" style="text;strokeColor=none;fillColor=none;html=1;fontSize=24;fontStyle=1;verticalAlign=middle;align=center;" parent="1" vertex="1">
          <mxGeometry x="1059" y="394" width="40" height="20" as="geometry" />
        </mxCell>
        <mxCell id="uBjLkE2Hoa3UZVWR7nmY-74" value="&lt;font style=&quot;color: rgb(0, 0, 0); font-weight: normal; font-size: 12px;&quot;&gt;USB_N&lt;/font&gt;" style="text;strokeColor=none;fillColor=none;html=1;fontSize=24;fontStyle=1;verticalAlign=middle;align=center;" parent="1" vertex="1">
          <mxGeometry x="1059" y="424" width="40" height="20" as="geometry" />
        </mxCell>
        <mxCell id="uBjLkE2Hoa3UZVWR7nmY-75" value="" style="endArrow=none;html=1;rounded=0;exitX=1;exitY=0.5;exitDx=0;exitDy=0;" parent="1" edge="1">
          <mxGeometry width="50" height="50" relative="1" as="geometry">
            <mxPoint x="960" y="242" as="sourcePoint" />
            <mxPoint x="1069" y="242" as="targetPoint" />
          </mxGeometry>
        </mxCell>
        <mxCell id="uBjLkE2Hoa3UZVWR7nmY-76" value="&lt;font style=&quot;color: rgb(0, 0, 0); font-weight: normal; font-size: 12px;&quot;&gt;VIDEO OUT&lt;/font&gt;" style="text;strokeColor=none;fillColor=none;html=1;fontSize=24;fontStyle=1;verticalAlign=middle;align=center;" parent="1" vertex="1">
          <mxGeometry x="1081.5" y="222" width="40" height="20" as="geometry" />
        </mxCell>
        <mxCell id="uBjLkE2Hoa3UZVWR7nmY-77" value="&lt;font style=&quot;color: rgb(0, 0, 0); font-weight: normal; font-size: 12px;&quot;&gt;PB5&lt;/font&gt;" style="text;strokeColor=none;fillColor=none;html=1;fontSize=24;fontStyle=1;verticalAlign=middle;align=center;" parent="1" vertex="1">
          <mxGeometry x="285" y="570" width="40" height="20" as="geometry" />
        </mxCell>
        <mxCell id="uBjLkE2Hoa3UZVWR7nmY-78" value="" style="endArrow=classic;html=1;rounded=0;entryX=0.51;entryY=0.002;entryDx=0;entryDy=0;entryPerimeter=0;exitX=0.525;exitY=1.004;exitDx=0;exitDy=0;exitPerimeter=0;" parent="1" source="uBjLkE2Hoa3UZVWR7nmY-61" target="uBjLkE2Hoa3UZVWR7nmY-60" edge="1">
          <mxGeometry width="50" height="50" relative="1" as="geometry">
            <mxPoint x="885" y="609" as="sourcePoint" />
            <mxPoint x="935" y="559" as="targetPoint" />
          </mxGeometry>
        </mxCell>
        <mxCell id="uBjLkE2Hoa3UZVWR7nmY-79" style="edgeStyle=orthogonalEdgeStyle;rounded=0;orthogonalLoop=1;jettySize=auto;html=1;endArrow=none;startFill=0;strokeColor=#000000;exitX=0.5;exitY=0;exitDx=0;exitDy=0;entryX=0.501;entryY=0.531;entryDx=0;entryDy=0;entryPerimeter=0;" parent="1" source="uBjLkE2Hoa3UZVWR7nmY-81" target="uBjLkE2Hoa3UZVWR7nmY-82" edge="1">
          <mxGeometry relative="1" as="geometry">
            <mxPoint x="140" y="339" as="targetPoint" />
            <mxPoint x="139.9999999999999" y="324" as="sourcePoint" />
          </mxGeometry>
        </mxCell>
        <mxCell id="uBjLkE2Hoa3UZVWR7nmY-80" style="edgeStyle=orthogonalEdgeStyle;rounded=0;orthogonalLoop=1;jettySize=auto;html=1;strokeColor=#000000;endArrow=none;startFill=0;" parent="1" source="uBjLkE2Hoa3UZVWR7nmY-81" edge="1">
          <mxGeometry relative="1" as="geometry">
            <mxPoint x="140" y="261" as="targetPoint" />
            <Array as="points">
              <mxPoint x="140" y="261" />
              <mxPoint x="140" y="261" />
            </Array>
          </mxGeometry>
        </mxCell>
        <mxCell id="uBjLkE2Hoa3UZVWR7nmY-81" value="" style="rounded=0;whiteSpace=wrap;html=1;fillColor=#4D4D4D;direction=west;strokeColor=#000000;" parent="1" vertex="1">
          <mxGeometry x="130" y="276" width="20" height="40" as="geometry" />
        </mxCell>
        <mxCell id="uBjLkE2Hoa3UZVWR7nmY-82" value="" style="line;strokeWidth=1;html=1;fillColor=#000000;strokeColor=#000000;" parent="1" vertex="1">
          <mxGeometry x="120" y="340" width="40" height="2" as="geometry" />
        </mxCell>
        <mxCell id="uBjLkE2Hoa3UZVWR7nmY-83" value="" style="line;strokeWidth=1;html=1;fillColor=#000000;strokeColor=#000000;" parent="1" vertex="1">
          <mxGeometry x="125" y="350" width="30" height="2" as="geometry" />
        </mxCell>
        <mxCell id="uBjLkE2Hoa3UZVWR7nmY-84" value="" style="line;strokeWidth=1;html=1;fillColor=#000000;strokeColor=#000000;" parent="1" vertex="1">
          <mxGeometry x="132.5" y="360" width="15" height="2" as="geometry" />
        </mxCell>
        <mxCell id="uBjLkE2Hoa3UZVWR7nmY-85" value="" style="shape=waypoint;sketch=0;size=6;pointerEvents=1;points=[];fillColor=none;resizable=0;rotatable=0;perimeter=centerPerimeter;snapToPoint=1;fontColor=#000000;strokeColor=#000000;" parent="1" vertex="1">
          <mxGeometry x="130" y="250" width="20" height="20" as="geometry" />
        </mxCell>
        <mxCell id="uBjLkE2Hoa3UZVWR7nmY-86" value="" style="rounded=0;whiteSpace=wrap;html=1;fillColor=#4D4D4D;direction=west;strokeColor=#000000;" parent="1" vertex="1">
          <mxGeometry x="180" y="380" width="20" height="40" as="geometry" />
        </mxCell>
        <mxCell id="uBjLkE2Hoa3UZVWR7nmY-87" value="&lt;font style=&quot;color: rgb(0, 0, 0); font-weight: normal; font-size: 12px;&quot;&gt;10K&lt;/font&gt;" style="text;strokeColor=none;fillColor=none;html=1;fontSize=24;fontStyle=1;verticalAlign=middle;align=center;rotation=270;" parent="1" vertex="1">
          <mxGeometry x="148.5" y="390" width="40" height="20" as="geometry" />
        </mxCell>
        <mxCell id="uBjLkE2Hoa3UZVWR7nmY-88" value="" style="endArrow=none;html=1;rounded=0;exitX=0.5;exitY=1;exitDx=0;exitDy=0;" parent="1" source="uBjLkE2Hoa3UZVWR7nmY-86" edge="1">
          <mxGeometry width="50" height="50" relative="1" as="geometry">
            <mxPoint x="150" y="400" as="sourcePoint" />
            <mxPoint x="190" y="260" as="targetPoint" />
          </mxGeometry>
        </mxCell>
        <mxCell id="uBjLkE2Hoa3UZVWR7nmY-89" value="" style="shape=waypoint;sketch=0;size=6;pointerEvents=1;points=[];fillColor=none;resizable=0;rotatable=0;perimeter=centerPerimeter;snapToPoint=1;fontColor=#000000;strokeColor=#000000;" parent="1" vertex="1">
          <mxGeometry x="180" y="250" width="20" height="20" as="geometry" />
        </mxCell>
        <mxCell id="uBjLkE2Hoa3UZVWR7nmY-90" value="" style="endArrow=none;html=1;rounded=0;entryX=0;entryY=0.75;entryDx=0;entryDy=0;" parent="1" target="uBjLkE2Hoa3UZVWR7nmY-5" edge="1">
          <mxGeometry width="50" height="50" relative="1" as="geometry">
            <mxPoint x="190" y="500" as="sourcePoint" />
            <mxPoint x="400" y="420" as="targetPoint" />
          </mxGeometry>
        </mxCell>
        <mxCell id="uBjLkE2Hoa3UZVWR7nmY-91" value="" style="endArrow=none;html=1;rounded=0;entryX=0.5;entryY=0;entryDx=0;entryDy=0;" parent="1" target="uBjLkE2Hoa3UZVWR7nmY-86" edge="1">
          <mxGeometry width="50" height="50" relative="1" as="geometry">
            <mxPoint x="190" y="500" as="sourcePoint" />
            <mxPoint x="390" y="420" as="targetPoint" />
          </mxGeometry>
        </mxCell>
        <mxCell id="uBjLkE2Hoa3UZVWR7nmY-92" value="&lt;font style=&quot;color: rgb(0, 0, 0); font-weight: normal; font-size: 12px;&quot;&gt;PA0&lt;/font&gt;" style="text;strokeColor=none;fillColor=none;html=1;fontSize=24;fontStyle=1;verticalAlign=middle;align=center;" parent="1" vertex="1">
          <mxGeometry x="285" y="480" width="40" height="20" as="geometry" />
        </mxCell>
        <mxCell id="uBjLkE2Hoa3UZVWR7nmY-93" value="&lt;font style=&quot;color: rgb(0, 0, 0); font-weight: normal; font-size: 12px;&quot;&gt;PB0&lt;/font&gt;" style="text;strokeColor=none;fillColor=none;html=1;fontSize=24;fontStyle=1;verticalAlign=middle;align=center;" parent="1" vertex="1">
          <mxGeometry x="284" y="280" width="40" height="20" as="geometry" />
        </mxCell>
        <mxCell id="uBjLkE2Hoa3UZVWR7nmY-94" value="" style="endArrow=classic;html=1;rounded=0;entryX=0.25;entryY=1;entryDx=0;entryDy=0;exitX=1;exitY=0.5;exitDx=0;exitDy=0;" parent="1" source="uBjLkE2Hoa3UZVWR7nmY-12" edge="1">
          <mxGeometry width="50" height="50" relative="1" as="geometry">
            <mxPoint x="703" y="420" as="sourcePoint" />
            <mxPoint x="828.5" y="300" as="targetPoint" />
            <Array as="points">
              <mxPoint x="827" y="420" />
            </Array>
          </mxGeometry>
        </mxCell>
        <mxCell id="uBjLkE2Hoa3UZVWR7nmY-95" value="&lt;font style=&quot;font-size: 8px;&quot; color=&quot;#000000&quot;&gt;&lt;span style=&quot;font-weight: 400;&quot;&gt;Pixel Draw Sync&lt;/span&gt;&lt;/font&gt;" style="text;strokeColor=none;fillColor=none;html=1;fontSize=24;fontStyle=1;verticalAlign=middle;align=center;rotation=90;" parent="1" vertex="1">
          <mxGeometry x="486" y="433" width="20" height="20" as="geometry" />
        </mxCell>
        <mxCell id="uBjLkE2Hoa3UZVWR7nmY-96" value="&lt;font style=&quot;font-size: 8px;&quot; color=&quot;#000000&quot;&gt;&lt;span style=&quot;font-weight: 400;&quot;&gt;Pixel Draw Sync&lt;/span&gt;&lt;/font&gt;" style="text;strokeColor=none;fillColor=none;html=1;fontSize=24;fontStyle=1;verticalAlign=middle;align=center;rotation=90;" parent="1" vertex="1">
          <mxGeometry x="486" y="345" width="20" height="20" as="geometry" />
        </mxCell>
        <mxCell id="uBjLkE2Hoa3UZVWR7nmY-97" value="" style="endArrow=classic;html=1;rounded=0;entryX=0.5;entryY=0;entryDx=0;entryDy=0;exitX=0.513;exitY=0.998;exitDx=0;exitDy=0;exitPerimeter=0;" parent="1" source="uBjLkE2Hoa3UZVWR7nmY-60" target="uBjLkE2Hoa3UZVWR7nmY-62" edge="1">
          <mxGeometry width="50" height="50" relative="1" as="geometry">
            <mxPoint x="880" y="630" as="sourcePoint" />
            <mxPoint x="930" y="580" as="targetPoint" />
          </mxGeometry>
        </mxCell>
        <mxCell id="uBjLkE2Hoa3UZVWR7nmY-98" value="&lt;font style=&quot;color: rgb(0, 0, 0); font-weight: normal; font-size: 12px;&quot;&gt;75R&lt;/font&gt;" style="text;strokeColor=none;fillColor=none;html=1;fontSize=24;fontStyle=1;verticalAlign=middle;align=center;rotation=270;" parent="1" vertex="1">
          <mxGeometry x="99" y="286" width="40" height="20" as="geometry" />
        </mxCell>
        <mxCell id="uBjLkE2Hoa3UZVWR7nmY-99" value="&lt;div&gt;&lt;font style=&quot;font-size: 9px;&quot; color=&quot;#000000&quot;&gt;&lt;span style=&quot;font-weight: 400;&quot;&gt;Detect start draw line&lt;/span&gt;&lt;/font&gt;&lt;/div&gt;" style="text;strokeColor=none;fillColor=none;html=1;fontSize=24;fontStyle=1;verticalAlign=middle;align=center;rotation=0;" parent="1" vertex="1">
          <mxGeometry x="502" y="500" width="110" height="18" as="geometry" />
        </mxCell>
        <mxCell id="uBjLkE2Hoa3UZVWR7nmY-100" value="&lt;div&gt;&lt;font style=&quot;font-size: 9px;&quot; color=&quot;#000000&quot;&gt;&lt;span style=&quot;font-weight: 400;&quot;&gt;Detect start draw line&lt;/span&gt;&lt;/font&gt;&lt;/div&gt;" style="text;strokeColor=none;fillColor=none;html=1;fontSize=24;fontStyle=1;verticalAlign=middle;align=center;rotation=0;" parent="1" vertex="1">
          <mxGeometry x="503" y="273" width="110" height="18" as="geometry" />
        </mxCell>
        <mxCell id="uBjLkE2Hoa3UZVWR7nmY-101" value="&lt;div&gt;&lt;font style=&quot;font-size: 9px;&quot; color=&quot;#000000&quot;&gt;&lt;span style=&quot;font-weight: 400;&quot;&gt;Pixel Brightness&lt;/span&gt;&lt;/font&gt;&lt;/div&gt;" style="text;strokeColor=none;fillColor=none;html=1;fontSize=24;fontStyle=1;verticalAlign=middle;align=center;rotation=270;" parent="1" vertex="1">
          <mxGeometry x="718.5" y="329.5" width="91" height="18" as="geometry" />
        </mxCell>
        <mxCell id="uBjLkE2Hoa3UZVWR7nmY-102" value="&lt;font style=&quot;color: rgb(0, 0, 0); font-weight: normal; font-size: 12px;&quot;&gt;PA3&lt;/font&gt;" style="text;strokeColor=none;fillColor=none;html=1;fontSize=24;fontStyle=1;verticalAlign=middle;align=center;" parent="1" vertex="1">
          <mxGeometry x="285" y="180" width="40" height="20" as="geometry" />
        </mxCell>
        <mxCell id="uBjLkE2Hoa3UZVWR7nmY-103" value="&lt;div&gt;&lt;font style=&quot;font-size: 9px;&quot; color=&quot;#000000&quot;&gt;&lt;span style=&quot;font-weight: 400;&quot;&gt;Source Select&lt;/span&gt;&lt;/font&gt;&lt;/div&gt;" style="text;strokeColor=none;fillColor=none;html=1;fontSize=24;fontStyle=1;verticalAlign=middle;align=center;rotation=270;" parent="1" vertex="1">
          <mxGeometry x="761.5" y="320.5" width="69" height="44" as="geometry" />
        </mxCell>
        <mxCell id="uBjLkE2Hoa3UZVWR7nmY-104" value="&lt;div&gt;&lt;font style=&quot;font-size: 9px;&quot; color=&quot;#000000&quot;&gt;&lt;span style=&quot;font-weight: 400;&quot;&gt;Real-time pixel&amp;nbsp;&lt;/span&gt;&lt;/font&gt;&lt;/div&gt;" style="text;strokeColor=none;fillColor=none;html=1;fontSize=24;fontStyle=1;verticalAlign=middle;align=center;rotation=0;" parent="1" vertex="1">
          <mxGeometry x="517" y="400" width="90" height="16" as="geometry" />
        </mxCell>
        <mxCell id="uBjLkE2Hoa3UZVWR7nmY-105" value="&lt;div&gt;&lt;font style=&quot;font-size: 9px;&quot; color=&quot;#000000&quot;&gt;&lt;span style=&quot;font-weight: 400;&quot;&gt;drawing&lt;/span&gt;&lt;/font&gt;&lt;/div&gt;" style="text;strokeColor=none;fillColor=none;html=1;fontSize=24;fontStyle=1;verticalAlign=middle;align=center;rotation=0;" parent="1" vertex="1">
          <mxGeometry x="533" y="410" width="48" height="14" as="geometry" />
        </mxCell>
        <mxCell id="uBjLkE2Hoa3UZVWR7nmY-106" value="&lt;font style=&quot;color: rgb(0, 0, 0);&quot;&gt;-&lt;/font&gt;" style="text;html=1;align=center;verticalAlign=middle;whiteSpace=wrap;rounded=0;" parent="1" vertex="1">
          <mxGeometry x="406" y="444" width="60" height="30" as="geometry" />
        </mxCell>
        <mxCell id="uBjLkE2Hoa3UZVWR7nmY-107" value="&lt;font style=&quot;color: rgb(0, 0, 0);&quot;&gt;-&lt;/font&gt;" style="text;html=1;align=center;verticalAlign=middle;whiteSpace=wrap;rounded=0;" parent="1" vertex="1">
          <mxGeometry x="404" y="324" width="60" height="30" as="geometry" />
        </mxCell>
        <mxCell id="uBjLkE2Hoa3UZVWR7nmY-109" value="&lt;font style=&quot;color: rgb(0, 0, 0);&quot;&gt;+&lt;/font&gt;" style="text;html=1;align=center;verticalAlign=middle;whiteSpace=wrap;rounded=0;" parent="1" vertex="1">
          <mxGeometry x="406" y="485" width="60" height="30" as="geometry" />
        </mxCell>
        <mxCell id="uBjLkE2Hoa3UZVWR7nmY-110" value="&lt;font style=&quot;color: rgb(0, 0, 0); font-weight: normal; font-size: 12px;&quot;&gt;PA1&lt;/font&gt;" style="text;strokeColor=none;fillColor=none;html=1;fontSize=24;fontStyle=1;verticalAlign=middle;align=center;" parent="1" vertex="1">
          <mxGeometry x="286" y="210" width="40" height="20" as="geometry" />
        </mxCell>
        <mxCell id="uBjLkE2Hoa3UZVWR7nmY-111" value="&lt;font style=&quot;color: rgb(0, 0, 0); font-weight: normal; font-size: 12px;&quot;&gt;PA7&lt;/font&gt;" style="text;strokeColor=none;fillColor=none;html=1;fontSize=24;fontStyle=1;verticalAlign=middle;align=center;" parent="1" vertex="1">
          <mxGeometry x="285" y="241" width="40" height="20" as="geometry" />
        </mxCell>
        <mxCell id="uBjLkE2Hoa3UZVWR7nmY-112" value="&lt;font style=&quot;color: rgb(0, 0, 0); font-weight: normal; font-size: 12px;&quot;&gt;PA2&lt;/font&gt;" style="text;strokeColor=none;fillColor=none;html=1;fontSize=24;fontStyle=1;verticalAlign=middle;align=center;" parent="1" vertex="1">
          <mxGeometry x="992" y="222" width="40" height="20" as="geometry" />
        </mxCell>
        <mxCell id="uBjLkE2Hoa3UZVWR7nmY-113" value="&lt;font style=&quot;color: rgb(0, 0, 0); font-weight: normal; font-size: 12px;&quot;&gt;PA12&lt;/font&gt;" style="text;strokeColor=none;fillColor=none;html=1;fontSize=24;fontStyle=1;verticalAlign=middle;align=center;" parent="1" vertex="1">
          <mxGeometry x="996" y="394" width="40" height="20" as="geometry" />
        </mxCell>
        <mxCell id="uBjLkE2Hoa3UZVWR7nmY-114" value="&lt;font style=&quot;color: rgb(0, 0, 0); font-weight: normal; font-size: 12px;&quot;&gt;PA11&lt;/font&gt;" style="text;strokeColor=none;fillColor=none;html=1;fontSize=24;fontStyle=1;verticalAlign=middle;align=center;" parent="1" vertex="1">
          <mxGeometry x="996" y="426" width="40" height="20" as="geometry" />
        </mxCell>
        <mxCell id="uBjLkE2Hoa3UZVWR7nmY-115" value="&lt;font style=&quot;color: rgb(0, 0, 0); font-weight: normal; font-size: 12px;&quot;&gt;PA10&lt;/font&gt;" style="text;strokeColor=none;fillColor=none;html=1;fontSize=24;fontStyle=1;verticalAlign=middle;align=center;" parent="1" vertex="1">
          <mxGeometry x="996" y="564" width="40" height="20" as="geometry" />
        </mxCell>
        <mxCell id="uBjLkE2Hoa3UZVWR7nmY-116" value="&lt;font style=&quot;color: rgb(0, 0, 0); font-weight: normal; font-size: 12px;&quot;&gt;PA9&lt;/font&gt;" style="text;strokeColor=none;fillColor=none;html=1;fontSize=24;fontStyle=1;verticalAlign=middle;align=center;" parent="1" vertex="1">
          <mxGeometry x="993" y="595" width="40" height="20" as="geometry" />
        </mxCell>
        <mxCell id="uBjLkE2Hoa3UZVWR7nmY-119" value="" style="endArrow=none;html=1;rounded=0;exitX=0.983;exitY=0.471;exitDx=0;exitDy=0;exitPerimeter=0;entryX=0;entryY=0.5;entryDx=0;entryDy=0;" parent="1" target="uBjLkE2Hoa3UZVWR7nmY-3" edge="1">
          <mxGeometry width="50" height="50" relative="1" as="geometry">
            <mxPoint x="856.48" y="241.81" as="sourcePoint" />
            <mxPoint x="930" y="242" as="targetPoint" />
          </mxGeometry>
        </mxCell>
        <mxCell id="uBjLkE2Hoa3UZVWR7nmY-120" value="" style="endArrow=none;html=1;rounded=0;entryX=0;entryY=0.25;entryDx=0;entryDy=0;" parent="1" target="uBjLkE2Hoa3UZVWR7nmY-4" edge="1">
          <mxGeometry width="50" height="50" relative="1" as="geometry">
            <mxPoint x="230" y="300" as="sourcePoint" />
            <mxPoint x="404" y="300" as="targetPoint" />
          </mxGeometry>
        </mxCell>
        <mxCell id="uBjLkE2Hoa3UZVWR7nmY-121" value="" style="endArrow=none;html=1;rounded=0;" parent="1" source="uBjLkE2Hoa3UZVWR7nmY-126" edge="1">
          <mxGeometry width="50" height="50" relative="1" as="geometry">
            <mxPoint x="220" y="472" as="sourcePoint" />
            <mxPoint x="230" y="200" as="targetPoint" />
          </mxGeometry>
        </mxCell>
        <mxCell id="uBjLkE2Hoa3UZVWR7nmY-123" value="&lt;font style=&quot;color: rgb(0, 0, 0);&quot;&gt;+&lt;/font&gt;" style="text;html=1;align=center;verticalAlign=middle;whiteSpace=wrap;rounded=0;" parent="1" vertex="1">
          <mxGeometry x="404" y="285" width="60" height="30" as="geometry" />
        </mxCell>
        <mxCell id="uBjLkE2Hoa3UZVWR7nmY-127" value="" style="endArrow=none;html=1;rounded=0;" parent="1" source="uBjLkE2Hoa3UZVWR7nmY-39" target="uBjLkE2Hoa3UZVWR7nmY-126" edge="1">
          <mxGeometry width="50" height="50" relative="1" as="geometry">
            <mxPoint x="230" y="590" as="sourcePoint" />
            <mxPoint x="230" y="200" as="targetPoint" />
          </mxGeometry>
        </mxCell>
        <mxCell id="uBjLkE2Hoa3UZVWR7nmY-126" value="" style="shape=waypoint;sketch=0;size=6;pointerEvents=1;points=[];fillColor=none;resizable=0;rotatable=0;perimeter=centerPerimeter;snapToPoint=1;fontColor=#000000;strokeColor=#000000;" parent="1" vertex="1">
          <mxGeometry x="220" y="290" width="20" height="20" as="geometry" />
        </mxCell>
      </root>
    </mxGraphModel>
  </diagram>
</mxfile>
